HIERARCHY
ROOT Hips
{
	OFFSET 0.00000 0.00000 0.00000
	CHANNELS 6 Xposition Yposition Zposition Zrotation Yrotation Xrotation 
	JOINT LHipJoint
	{
		OFFSET 0 0 0
		CHANNELS 3 Zrotation Yrotation Xrotation
		JOINT LeftHip
		{
			OFFSET 1.66553 -1.82942 0.76350
			CHANNELS 3 Zrotation Yrotation Xrotation
			JOINT LeftKnee
			{
				OFFSET 2.41740 -6.64177 0.00000
				CHANNELS 3 Zrotation Yrotation Xrotation
				JOINT LeftAnkle
				{
					OFFSET 2.71614 -7.46254 0.00000
					CHANNELS 3 Zrotation Yrotation Xrotation
					JOINT LeftToe
					{
						OFFSET 0.08005 -0.21993 1.82495
						CHANNELS 3 Zrotation Yrotation Xrotation
						End Site
						{
							OFFSET 0.00000 -0.00000 0.93441
						}
					}
				}
			}
		}
	}
	JOINT RHipJoint
	{
		OFFSET 0 0 0
		CHANNELS 3 Zrotation Yrotation Xrotation
		JOINT RightHip
		{
			OFFSET -1.63725 -1.82942 0.76350
			CHANNELS 3 Zrotation Yrotation Xrotation
			JOINT RightKnee
			{
				OFFSET -2.40538 -6.60872 0.00000
				CHANNELS 3 Zrotation Yrotation Xrotation
				JOINT RightAnkle
				{
					OFFSET -2.73312 -7.50919 0.00000
					CHANNELS 3 Zrotation Yrotation Xrotation
					JOINT RightToe
					{
						OFFSET -0.15567 -0.42769 1.93504
						CHANNELS 3 Zrotation Yrotation Xrotation
						End Site
						{
							OFFSET -0.00000 -0.00000 1.00100
						}
					}
				}
			}
		}
	}
	JOINT lowerback
	{
		OFFSET 0 0 0
		CHANNELS 3 Zrotation Yrotation Xrotation
		JOINT Chest
		{
			OFFSET 0.00326 2.30118 -0.13017
			CHANNELS 3 Zrotation Yrotation Xrotation
			JOINT Chest2
			{
				OFFSET 0.02887 2.30677 0.00834
				CHANNELS 3 Zrotation Yrotation Xrotation
				JOINT lowerneck
				{
					OFFSET 0 0 0
					CHANNELS 3 Zrotation Yrotation Xrotation
					JOINT Neck
					{
						OFFSET 0.12946 1.68326 0.00713
						CHANNELS 3 Zrotation Yrotation Xrotation
						JOINT Head
						{
							OFFSET -0.24364 1.67243 -0.16079
							CHANNELS 3 Zrotation Yrotation Xrotation
							End Site
							{
								OFFSET -0.09229 1.70819 -0.06383
							}
						}
					}
				}
				JOINT LeftCollar
				{
					OFFSET 0 0 0
					CHANNELS 3 Zrotation Yrotation Xrotation
					JOINT LeftShoulder
					{
						OFFSET 3.28104 0.69567 -0.00556
CHANNELS 3 Zrotation Xrotation Yrotation
						JOINT LeftElbow
						{
OFFSET 0 -5.707060 -0.000000
CHANNELS 3 Zrotation Xrotation Yrotation
							JOINT LeftWrist
							{
OFFSET 0 -3.332430 0.000000
CHANNELS 3 Zrotation Xrotation Yrotation
								JOINT lhand
								{
									OFFSET 0 0 0
CHANNELS 3 Zrotation Xrotation Yrotation
									JOINT LFingers
									{
OFFSET 0 -0.792690 0.000000
CHANNELS 3 Zrotation Xrotation Yrotation
										End Site
										{
OFFSET 0 -0.639090 0.000000
										}
									}
								}
								JOINT LThumb
								{
OFFSET 0 0.000000 0.000000
CHANNELS 3 Zrotation Xrotation Yrotation
									End Site
									{
OFFSET 0 -0.648840 0.648840
									}
								}
							}
						}
					}
				}
				JOINT RightCollar
				{
					OFFSET 0 0 0
					CHANNELS 3 Zrotation Yrotation Xrotation
					JOINT RightShoulder
					{
						OFFSET -3.40955 0.64424 0.14010
CHANNELS 3 Zrotation Xrotation Yrotation
						JOINT RightElbow
						{
OFFSET 0 -5.881760 -0.000000
CHANNELS 3 Zrotation Xrotation Yrotation
							JOINT RightWrist
							{
OFFSET 0 -3.281560 0.000000
CHANNELS 3 Zrotation Xrotation Yrotation
								JOINT rhand
								{
									OFFSET 0 0 0
CHANNELS 3 Zrotation Xrotation Yrotation
									JOINT RFingers
									{
OFFSET 0 -0.863130 0.000000
CHANNELS 3 Zrotation Xrotation Yrotation
										End Site
										{
OFFSET 0 -0.695870 0.000000
										}
									}
								}
								JOINT RThumb
								{
OFFSET 0 0.000000 0.000000
CHANNELS 3 Zrotation Xrotation Yrotation
									End Site
									{
OFFSET 0 -0.706500 0.706500
									}
								}
							}
						}
					}
				}
			}
		}
	}
}
MOTION
Frames: 11
Frame Time: 0.008333333333333333
10.340900 10.406200 -18.479400 -3.598500 1.083700 -12.522800 0.000000 0.000000 0.000000 1.196600 0.213900 -81.046700 15.271500 19.455300 76.053000 0.000000 0.000000 0.000000 0.000000 0.000000 0.000000 0.000000 0.000000 0.000000 7.241300 -1.052900 -81.112500 -15.791200 -19.569900 77.608900 0.685100 14.857400 9.136700 -0.756200 5.553800 -15.495200 3.605900 -3.072800 24.447800 1.464400 -2.977900 6.372200 0.416300 -1.470600 -6.640900 15.774900 7.507200 1.086000 -14.877600 9.803400 -7.062100 -7.060500 4.910500 -0.674900 -0.000000 -0.000000 0.000000 14.396900 8.148400 -5.213100 131.907800 -52.196500 95.341400 -1.218900 4.905800 -19.530500 0.000000 0.000000 0.000000 -7.125000 0.000000 0.000000 -27.969400 47.374400 1.772200 -0.000000 -0.000000 0.000000 -5.817300 10.849800 20.288100 -99.939300 -59.623400 -68.596800 -32.376300 -46.919900 3.971500 0.000000 0.000000 0.000000 7.125000 0.000000 -0.000000 -4.749500 34.648700 -1.210400
10.353037 10.448037 -18.531656 -3.321141 1.414900 -13.529555 0.000000 0.000000 0.000000 -0.645211 1.501282 -79.876301 14.888759 19.361767 74.901470 0.000000 0.000000 0.000000 0.000000 0.000000 0.000000 0.000000 0.000000 0.000000 6.734389 -1.265605 -79.511561 -15.545275 -19.517425 76.873772 0.619051 14.413711 9.902344 -0.363826 3.818138 -10.571682 3.002165 -2.931650 24.373254 0.805581 -3.030675 7.984861 0.003081 -1.471899 -4.841163 15.535265 6.710308 0.783213 -14.537292 8.548718 -9.050664 -7.017547 4.257433 -1.423208 0.000000 0.000000 0.000000 19.731745 2.201768 -10.884759 130.670343 -52.721518 94.360148 5.007337 10.706747 -17.077194 0.000000 0.000000 0.000000 -7.125000 0.000000 0.000000 -21.374745 45.953156 0.526214 0.000000 0.000000 0.000000 -7.019292 10.204038 23.314082 -100.298776 -59.595404 -68.906875 -31.946630 -44.291388 2.619422 0.000000 0.000000 0.000000 7.125000 0.000000 0.000000 -4.352073 33.044054 -1.277915
10.369195 10.414524 -18.651288 -3.522877 1.207561 -15.518895 0.000000 0.000000 0.000000 -0.812482 2.287892 -78.033232 14.698422 19.312368 74.326596 0.000000 0.000000 0.000000 0.000000 0.000000 0.000000 0.000000 0.000000 0.000000 6.786519 -0.940447 -77.139015 -15.260968 -19.452790 76.021474 0.531953 13.660707 10.188293 -0.102614 2.053388 -5.653716 2.968800 -2.932153 25.452834 0.494927 -3.054559 10.189131 -0.326904 -1.452493 -2.956094 14.600284 6.078107 1.056825 -14.651448 7.643598 -9.696268 -6.960551 3.847052 -1.821491 0.000000 0.000000 0.000000 21.263455 -3.361065 -12.695063 130.589878 -52.754770 94.296223 2.145257 10.037253 -13.054103 0.000000 0.000000 0.000000 -7.125000 0.000000 0.000000 -22.343541 41.902604 -1.807673 0.000000 0.000000 0.000000 -8.007253 7.131346 24.142881 -104.281965 -59.214976 -72.335954 -30.069712 -43.681378 -0.798522 0.000000 0.000000 0.000000 7.125000 0.000000 0.000000 -2.734583 29.051927 -1.064137
10.370320 10.366478 -18.816326 -3.346703 0.937222 -18.237053 0.000000 0.000000 0.000000 -1.417682 2.926215 -75.379635 14.484763 19.254552 73.679697 0.000000 0.000000 0.000000 0.000000 0.000000 0.000000 0.000000 0.000000 0.000000 6.821429 -0.615110 -74.139877 -14.935807 -19.373636 75.043212 0.532284 13.735672 10.431874 -0.205872 2.894688 -7.987556 2.818504 -2.917139 28.131529 0.447475 -2.996001 12.170625 -0.259390 -1.405856 -1.993834 14.380495 5.594822 1.738060 -16.353583 6.998047 -9.145995 -7.490056 3.618753 -1.792678 0.000000 0.000000 0.000000 18.820627 -4.264514 -12.511984 128.506498 -53.580182 92.628518 6.305242 10.916690 -12.238722 0.000000 0.000000 0.000000 -7.125000 0.000000 0.000000 -18.547333 41.536650 -1.647562 0.000000 0.000000 0.000000 -7.294720 4.400297 21.854607 -106.853386 -58.898952 -74.541516 -29.352069 -39.410207 -2.623946 0.000000 0.000000 0.000000 7.125000 0.000000 0.000000 -2.108872 26.967837 -0.924879
10.343612 10.241685 -18.924259 -3.332114 0.162215 -20.813440 0.000000 0.000000 0.000000 -1.098780 3.891343 -73.022031 14.354637 19.218046 73.284610 0.000000 0.000000 0.000000 0.000000 0.000000 0.000000 0.000000 0.000000 0.000000 7.223183 0.045045 -71.862633 -14.916286 -19.368762 74.984514 0.660697 14.730126 9.603988 -0.559650 4.791509 -13.314887 2.680132 -2.989002 30.144305 0.630568 -3.084956 14.428871 0.060491 -1.446794 -0.305199 14.270605 5.530447 2.940333 -17.593220 6.977404 -9.088494 -7.916697 3.706484 -1.925139 0.000000 0.000000 0.000000 15.790002 -1.469017 -10.661341 126.408866 -54.344969 90.932211 9.038944 16.031185 -12.484965 0.000000 0.000000 0.000000 -7.125000 0.000000 0.000000 -16.271729 42.032991 -1.225872 0.000000 0.000000 0.000000 -7.571087 3.289559 21.792405 -108.704616 -58.635796 -76.124444 -31.021797 -39.118674 -0.934103 0.000000 0.000000 0.000000 7.125000 0.000000 0.000000 -3.470898 28.882231 -1.365558
10.293263 10.248394 -19.042171 -3.243484 0.433745 -22.259529 0.000000 0.000000 0.000000 -1.422727 4.054824 -71.114476 13.965610 19.103566 72.099508 0.000000 0.000000 0.000000 0.000000 0.000000 0.000000 0.000000 0.000000 0.000000 7.624381 -0.596842 -70.097299 -14.592621 -19.284017 74.006451 0.725772 15.425166 10.164331 -1.654371 7.872906 -22.442955 2.925053 -3.346637 30.877452 0.553173 -3.460728 15.297338 -0.048490 -1.609336 0.363563 15.513375 5.428330 4.766545 -18.707109 7.251341 -7.400363 -8.507985 3.912443 -1.607281 0.000000 0.000000 0.000000 13.264708 5.246578 -8.446095 123.072116 -55.434055 88.202199 4.609091 18.909352 -11.822830 0.000000 0.000000 0.000000 -7.125000 0.000000 0.000000 -19.860324 40.985771 -2.055750 0.000000 0.000000 0.000000 -7.622675 4.746252 21.099263 -108.824281 -58.617471 -76.226610 -30.336249 -37.629089 0.622123 0.000000 0.000000 0.000000 7.125000 0.000000 0.000000 -2.991271 30.691363 -1.049705
10.291988 10.338417 -19.079918 -1.150307 0.664963 -21.904488 0.000000 0.000000 0.000000 -3.716487 4.247440 -70.441844 13.633538 18.999036 71.082042 0.000000 0.000000 0.000000 0.000000 0.000000 0.000000 0.000000 0.000000 0.000000 6.211433 -1.513120 -70.510645 -14.332193 -19.211659 73.216377 0.564348 14.618144 12.215653 -0.570774 4.836971 -13.444443 1.662388 -3.194572 28.662887 0.146939 -3.681417 14.700077 0.204123 -1.777395 0.668633 16.331080 5.159710 9.329600 -19.592860 7.626395 -6.267845 -9.105331 4.304161 -1.925526 0.000000 0.000000 0.000000 10.178541 12.135493 -5.399798 116.839217 -57.094914 83.016728 0.324375 23.518287 -11.209741 0.000000 0.000000 0.000000 -7.125000 0.000000 0.000000 -23.232498 40.033474 -3.034682 0.000000 0.000000 0.000000 -7.284253 7.204842 19.075118 -108.972449 -58.595094 -76.353096 -30.329505 -37.537047 1.541489 0.000000 0.000000 0.000000 7.125000 0.000000 0.000000 -3.013412 31.756926 -0.976682
10.286018 10.381961 -19.006594 -2.236886 -0.398728 -21.466945 0.000000 0.000000 0.000000 -2.012472 4.525078 -71.289330 13.883903 19.078484 71.849540 0.000000 0.000000 0.000000 0.000000 0.000000 0.000000 0.000000 0.000000 0.000000 7.771202 -1.246951 -70.369930 -14.255830 -19.189781 72.984372 0.402352 13.333780 12.713942 -0.034265 1.180416 -3.245680 2.723255 -3.070971 27.194498 1.213557 -3.279180 13.365268 0.632110 -1.573891 -0.167919 16.408579 4.887745 11.902739 -20.204438 7.742738 -4.679170 -9.400699 4.490425 -1.862433 0.000000 0.000000 0.000000 7.279995 17.166082 -2.671839 115.993777 -57.286322 82.306127 -1.453797 22.077845 -10.811549 0.000000 0.000000 0.000000 -7.125000 0.000000 0.000000 -24.551596 39.514580 -3.572943 0.000000 0.000000 0.000000 -7.125885 9.571509 15.567702 -109.803305 -58.465016 -77.061773 -28.836542 -38.065126 1.318779 0.000000 0.000000 0.000000 7.125000 0.000000 0.000000 -1.812287 31.481998 -0.599219
10.308066 10.411992 -18.972572 -2.497850 0.681610 -21.738353 0.000000 0.000000 0.000000 -2.717154 2.800084 -71.503477 14.154691 19.160313 72.676351 0.000000 0.000000 0.000000 0.000000 0.000000 0.000000 0.000000 0.000000 0.000000 7.402166 -2.765313 -70.106937 -14.376206 -19.224232 73.350204 0.528659 14.443746 12.602760 -0.065515 1.562556 -4.300231 2.577537 -3.142237 26.351460 1.695642 -3.408158 13.073711 1.239273 -1.660750 -0.070078 16.205128 5.002767 11.476856 -19.917263 7.929617 -3.800357 -9.218999 4.548582 -1.525510 0.000000 0.000000 0.000000 7.813833 16.305393 -3.967041 116.167459 -57.247567 82.452292 2.068687 21.840939 -10.586627 0.000000 0.000000 0.000000 -7.125000 0.000000 0.000000 -21.595201 39.607418 -3.036208 0.000000 0.000000 0.000000 -7.628738 9.125979 13.697637 -107.230123 -58.847730 -74.864001 -30.162199 -37.506680 0.860307 0.000000 0.000000 0.000000 7.125000 0.000000 0.000000 -2.861367 30.967648 -0.982165
10.317420 10.351949 -19.013744 -2.361718 1.257262 -22.828137 0.000000 0.000000 0.000000 -3.479517 1.591632 -69.285527 13.537075 18.967562 70.785691 0.000000 0.000000 0.000000 0.000000 0.000000 0.000000 0.000000 0.000000 0.000000 6.767450 -3.210031 -69.281657 -14.470082 -19.250457 73.635131 0.496795 14.141368 12.553687 -0.001755 0.247051 -0.678834 1.587576 -2.829562 26.858290 1.511316 -3.220931 13.377456 1.566076 -1.607713 0.072364 16.018214 5.187181 10.137826 -19.140062 8.100265 -3.001500 -8.836044 4.539644 -1.080712 0.000000 0.000000 0.000000 11.644223 11.678044 -8.349254 114.497293 -57.606260 81.044742 4.552732 22.247213 -10.984510 0.000000 0.000000 0.000000 -7.125000 0.000000 0.000000 -19.651873 40.190845 -2.437767 0.000000 0.000000 0.000000 -8.462067 6.195204 15.286334 -96.454355 -59.841293 -65.586612 -29.436677 -36.079434 0.180995 0.000000 0.000000 0.000000 7.125000 0.000000 0.000000 -2.268281 30.183594 -0.820761
10.324115 10.267010 -19.067908 -3.396019 1.604714 -25.037454 0.000000 0.000000 0.000000 -2.568565 1.180391 -67.496465 13.634313 18.999312 71.084522 0.000000 0.000000 0.000000 0.000000 0.000000 0.000000 0.000000 0.000000 0.000000 7.310161 -3.694097 -66.988755 -14.430772 -19.239518 73.515752 0.427738 13.621582 12.830940 -0.002806 0.328225 -0.901936 2.322300 -2.976957 29.266571 0.890702 -3.172930 14.357971 0.539955 -1.514604 0.029564 15.165236 5.683842 8.278686 -18.303334 8.385600 -3.807556 -8.342144 4.589841 -1.018340 0.000000 0.000000 0.000000 18.811766 8.696997 -14.454471 113.110717 -57.882437 79.872158 6.176598 20.821074 -9.714951 0.000000 0.000000 0.000000 -7.125000 0.000000 0.000000 -17.935711 39.119051 -2.701579 0.000000 0.000000 0.000000 -8.253599 4.975279 18.469668 -95.587453 -59.881445 -64.836915 -32.503202 -36.724752 3.057589 0.000000 0.000000 0.000000 7.125000 0.000000 0.000000 -4.822232 33.575440 -1.354873
